#!OML:ASF I:\Actors\actors\Patient Classification 2\Patient 1\Session 1\actor1.ASF
:FULLY-SPECIFIED
:DEGREES
304
root -0.625069 18.6992 5.61203 5.09118 -8.3915 -4.65611
lowerback 20.4888 -1.25863 3.7549
upperback -0.69674 -0.424809 2.68543
thorax -12.3536 -0.331678 0.98923
lowerneck -2.23706 -3.87179 2.6915
upperneck -6.35706 -5.04245 3.58385
head -1.56645 -2.6454 0.700111
rclavicle 3.38431e-014 -1.23246e-014
rhumerus 14.346 10.1815 -24.6584
rradius 141.715
rwrist -78.8426
rhand 4.32208 -55.0699
rfingers 7.12502
rthumb 29.7231 -82.707
lclavicle 3.38431e-014 -1.23246e-014
lhumerus -45.6614 -1.99633 88.5215
lradius 51.655
lwrist 0.112501
lhand -10.1879 -25.8217
lfingers 7.12502
lthumb 15.8027 3.55332
rfemur 0 0 0
rtibia 0
rfoot 0 0
rtoes 0
lfemur -11.3576 4.29293 -9.47102
ltibia 28.3944
lfoot -21.9517 10.9862
ltoes -56.5757
305
root -0.622626 18.6983 5.59991 5.10285 -8.29875 -4.67983
lowerback 20.5861 -1.24318 3.72164
upperback -0.637663 -0.399354 2.76639
thorax -12.3404 -0.314043 1.09158
lowerneck -2.23443 -3.88408 2.67772
upperneck -6.39745 -5.06005 3.52698
head -1.5808 -2.65388 0.685781
rclavicle -3.37934e-014 2.18663e-014
rhumerus 14.3771 10.0166 -24.6622
rradius 141.728
rwrist -79.1685
rhand 4.66792 -55.1257
rfingers 7.12502
rthumb 30.0532 -82.7034
lclavicle -3.37934e-014 2.18663e-014
lhumerus -45.6054 -2.01648 88.6063
lradius 51.7215
lwrist 0.105122
lhand -10.22 -25.9674
lfingers 7.12502
lthumb 15.7718 3.41005
rfemur 0 0 0
rtibia 0
rfoot 0 0
rtoes 0
lfemur -11.4625 4.26133 -9.43702
ltibia 28.4499
lfoot -21.9222 10.9048
ltoes -56.5165
306
root -0.619008 18.6982 5.58918 5.10396 -8.21133 -4.70328
lowerback 20.7024 -1.23758 3.72589
upperback -0.587005 -0.38016 2.81534
thorax -12.3484 -0.303165 1.13942
lowerneck -2.25613 -3.86955 2.76153
upperneck -6.38848 -5.04639 3.43801
head -1.57875 -2.64711 0.643871
rclavicle 3.77691e-015 -3.37934e-014
rhumerus 14.4034 9.77127 -24.8028
rradius 141.783
rwrist -79.6944
rhand 4.92322 -55.3404
rfingers 7.12502
rthumb 30.2967 -82.8736
lclavicle 3.77691e-015 -3.37934e-014
lhumerus -45.5033 -2.01414 88.6261
lradius 51.6968
lwrist 0.0322746
lhand -10.1435 -26.0062
lfingers 7.12502
lthumb 15.8455 3.36539
rfemur 0 0 0
rtibia 0
rfoot 0 0
rtoes 0
lfemur -11.5468 4.19065 -9.41173
ltibia 28.4945
lfoot -21.9018 10.8878
ltoes -56.4901
307
root -0.614388 18.6995 5.58089 5.10681 -8.12189 -4.68015
lowerback 20.8245 -1.235 3.74486
upperback -0.57476 -0.364346 2.82139
thorax -12.4041 -0.296933 1.13316
lowerneck -2.34121 -3.86999 2.88307
upperneck -6.26061 -5.0589 3.3575
head -1.52857 -2.65125 0.594898
rclavicle 1.08338e-014 1.98785e-014
rhumerus 14.3641 9.64653 -24.9583
rradius 141.759
rwrist -80.1785
rhand 5.17851 -55.6548
rfingers 7.12502
rthumb 30.5402 -83.1429
lclavicle 1.08338e-014 1.98785e-014
lhumerus -45.5005 -2.10929 88.6381
lradius 51.7197
lwrist 0.0564252
lhand -10.1453 -25.9464
lfingers 7.12502
lthumb 15.8437 3.42536
rfemur 0 0 0
rtibia 0
rfoot 0 0
rtoes 0
lfemur -11.635 4.11678 -9.44712
ltibia 28.5352
lfoot -21.8768 10.9274
ltoes -56.4971
308
root -0.609821 18.7006 5.57226 5.15648 -8.03126 -4.64219
lowerback 20.8901 -1.23789 3.74819
upperback -0.57133 -0.361941 2.83297
thorax -12.4376 -0.295636 1.14504
lowerneck -2.54238 -3.87902 2.93909
upperneck -6.10751 -5.08343 3.39282
head -1.44595 -2.66028 0.589104
rclavicle -2.31584e-014 5.40694e-014
rhumerus 14.3751 9.59098 -25.0525
rradius 141.625
rwrist -80.6914
rhand 5.66037 -56.1403
rfingers 7.12502
rthumb 30.9996 -83.5419
lclavicle -2.31584e-014 5.40694e-014
lhumerus -45.5598 -2.20042 88.6546
lradius 51.8191
lwrist 0.156082
lhand -10.2646 -25.9435
lfingers 7.12502
lthumb 15.7288 3.43733
rfemur 0 0 0
rtibia 0
rfoot 0 0
rtoes 0
lfemur -11.776 4.08092 -9.49807
ltibia 28.5671
lfoot -21.8475 10.9411
ltoes -56.5131
309
root -0.60674 18.7007 5.56261 5.22397 -7.9427 -4.65346
lowerback 20.9716 -1.23439 3.77703
upperback -0.572859 -0.34113 2.86379
thorax -12.486 -0.286801 1.15881
lowerneck -2.57431 -3.86602 2.98507
upperneck -6.08772 -5.07004 3.35689
head -1.43641 -2.65333 0.569409
rclavicle 1.44119e-014 1.27222e-014
rhumerus 14.3587 9.58591 -25.1811
rradius 141.523
rwrist -80.8665
rhand 6.21346 -56.4501
rfingers 7.12502
rthumb 31.5267 -83.7498
lclavicle 1.44119e-014 1.27222e-014
lhumerus -45.606 -2.25535 88.659
lradius 51.9136
lwrist 0.285893
lhand -10.2455 -25.9537
lfingers 7.12502
lthumb 15.7472 3.42564
rfemur 0 0 0
rtibia 0
rfoot 0 0
rtoes 0
lfemur -11.9283 4.06992 -9.48837
ltibia 28.5962
lfoot -21.7976 10.9099
ltoes -56.5791
